<svg width="300" height="300" viewBox="0 0 300 300" fill="none" xmlns="http://www.w3.org/2000/svg">
<g clip-path="url(#clip0_16_368)">
<path d="M150.455 10.3108C129.295 10.3107 80.455 72.9907 80.4553 150.31C80.4556 227.63 129.296 290.311 150.456 290.311" stroke="black" stroke-width="6"/>
<path d="M29.1659 80.3901C39.7458 62.0651 118.448 51.1084 185.409 89.7683C252.37 128.428 282.233 202.065 271.653 220.39" stroke="black" stroke-width="6"/>
<path d="M271.609 80.4675C282.189 98.7925 252.327 172.429 185.366 211.089C118.405 249.749 39.702 238.792 29.122 220.467C18.542 202.142 48.4045 128.505 115.366 89.8455C182.327 51.1857 261.029 62.1425 271.609 80.4675Z" fill="white" stroke="black" stroke-width="6"/>
<path d="M170.102 102.661C170.88 102.355 171.696 102.543 172.327 102.932C172.917 103.296 173.411 103.871 173.626 104.522L173.666 104.653L173.668 104.663C174.074 106.297 173.04 107.627 171.69 108.157L171.689 108.156C169.86 108.884 168.043 109.63 166.229 110.412C166.993 111.714 167.728 113.032 168.422 114.353L168.542 114.607C169.08 115.902 168.674 117.489 167.366 118.244C166.065 118.996 164.193 118.576 163.452 117.183C162.656 115.703 161.83 114.229 160.974 112.773C160.358 113.063 159.745 113.349 159.134 113.65L159.132 113.651C156.981 114.69 154.834 115.774 152.715 116.905C153.107 117.481 153.501 118.058 153.892 118.638L155.38 120.844L155.38 120.845L155.38 120.845C155.836 121.521 155.878 122.338 155.671 123.046C155.465 123.752 154.998 124.408 154.351 124.781C152.922 125.606 151.291 124.991 150.463 123.765L150.462 123.763C149.546 122.4 148.617 121.034 147.686 119.666C145.036 121.181 142.422 122.76 139.845 124.401C140.772 125.798 141.671 127.209 142.567 128.601L142.569 128.603C143.429 129.954 142.809 131.792 141.534 132.529C140.225 133.285 138.662 132.844 137.801 131.731L137.638 131.501C136.789 130.171 135.935 128.856 135.069 127.549C132.355 129.406 129.7 131.333 127.095 133.328C128.171 134.69 129.232 136.063 130.273 137.46L130.274 137.462C130.776 138.142 130.8 138.979 130.581 139.69C130.363 140.396 129.884 141.054 129.258 141.416C127.774 142.273 126.239 141.566 125.387 140.422L125.387 140.423C125.231 140.219 125.067 140.005 124.907 139.774L124.894 139.756L124.874 139.722C124.857 139.698 124.84 139.672 124.826 139.643C124.817 139.629 124.809 139.615 124.801 139.602C124.796 139.594 124.792 139.586 124.787 139.578C124.779 139.569 124.772 139.559 124.764 139.549C124.743 139.524 124.717 139.494 124.689 139.458L124.686 139.453C124.321 138.978 123.951 138.492 123.576 138.02L123.573 138.015L123.572 138.015L123.573 138.014C123.278 137.635 122.984 137.26 122.69 136.89C121.032 138.257 119.397 139.644 117.793 141.081L117.791 141.083C116.666 142.079 114.918 142.218 113.766 141.045L113.766 141.044C113.234 140.507 112.961 139.753 112.953 139.02C112.945 138.285 113.204 137.518 113.803 136.984L113.804 136.983C115.546 135.435 117.327 133.912 119.137 132.437C118.188 131.252 117.242 130.058 116.298 128.864L116.296 128.862C115.411 127.729 115.116 126.071 116.355 124.859L116.562 124.679C117.067 124.283 117.73 124.062 118.376 124.043C119.07 124.023 119.813 124.236 120.332 124.801L120.433 124.919L120.435 124.921C121.477 126.239 122.534 127.561 123.591 128.884C124.149 128.453 124.714 128.029 125.272 127.603L125.274 127.601C127.456 125.953 129.682 124.361 131.937 122.82C130.985 121.445 130.008 120.075 129.025 118.716L129.025 118.715C128.534 118.038 128.51 117.203 128.726 116.494C128.942 115.788 129.416 115.127 130.044 114.765C131.526 113.909 133.07 114.596 133.922 115.766L134.696 116.836C135.371 117.776 136.034 118.721 136.693 119.67C139.248 118.04 141.843 116.461 144.471 114.956C143.538 113.626 142.592 112.303 141.643 110.979L141.642 110.978L141.642 110.977L141.641 110.977C141.153 110.303 141.123 109.474 141.337 108.765C141.551 108.057 142.026 107.397 142.662 107.03C144.124 106.186 145.687 106.858 146.541 108.033L146.542 108.033C147.539 109.412 148.511 110.784 149.488 112.169C152.292 110.665 155.137 109.253 158.007 107.891C157.168 106.57 156.312 105.264 155.442 103.954L155.442 103.953C154.991 103.272 154.948 102.458 155.155 101.75C155.36 101.045 155.827 100.393 156.472 100.021C157.812 99.2473 159.33 99.7397 160.196 100.815L160.361 101.038L160.362 101.041C161.342 102.511 162.319 103.997 163.266 105.503C165.53 104.509 167.805 103.573 170.101 102.661L170.102 102.661Z" fill="black" stroke="black"/>
<path d="M29.165 80.3918C18.585 98.7168 48.4476 172.354 115.409 211.013C182.369 249.673 261.072 238.717 271.652 220.392" stroke="black" stroke-width="6"/>
<path d="M150.455 10.3105C171.615 10.3106 220.455 72.9908 220.455 150.311C220.455 227.63 171.615 290.31 150.455 290.31" stroke="black" stroke-width="6"/>
<path d="M247.599 221.076C255.251 225.495 257.873 235.28 253.455 242.933C249.037 250.585 239.251 253.207 231.599 248.789C223.946 244.371 221.324 234.585 225.742 226.933C230.16 219.28 239.946 216.658 247.599 221.076Z" fill="#EC008C" stroke="white" stroke-width="4"/>
<path d="M128.766 16.8566C136.419 21.2748 139.041 31.0603 134.623 38.713C130.204 46.3656 120.419 48.9877 112.766 44.5694C105.113 40.1511 102.491 30.3657 106.91 22.713C111.328 15.0603 121.113 12.4383 128.766 16.8566Z" fill="#00AEEF" stroke="white" stroke-width="4"/>
</g>
<defs>
<clipPath id="clip0_16_368">
<rect width="300" height="300" fill="white"/>
</clipPath>
</defs>
</svg>
